<svg xmlns="http://www.w3.org/2000/svg" width="2000" height="2000" viewBox="0 0 2000 2000">
  <defs>
    <radialGradient id="bg03" cx="65%" cy="8%" r="110%">
      <stop offset="0%" stop-color="#2e2e2e"/>
      <stop offset="100%" stop-color="#141414"/>
    </radialGradient>
    <linearGradient id="metal03" x1="0" y1="0" x2="0" y2="1">
      <stop offset="0%" stop-color="#878787"/>
      <stop offset="52%" stop-color="#4c4c4c"/>
      <stop offset="100%" stop-color="#222"/>
    </linearGradient>
    <linearGradient id="orange03" x1="0" y1="0" x2="1" y2="0">
      <stop offset="0%" stop-color="#ff932d"/>
      <stop offset="100%" stop-color="#eb5b15"/>
    </linearGradient>
    <filter id="concrete03" x="-10%" y="-10%" width="120%" height="120%">
      <feTurbulence type="fractalNoise" baseFrequency="0.9" numOctaves="2" seed="7" result="noise"/>
      <feBlend in="SourceGraphic" in2="noise" mode="multiply"/>
      <feColorMatrix type="matrix" values="1 0 0 0 0 0 1 0 0 0 0 0 1 0 0 0 0 0 .12 0"/>
    </filter>
    <filter id="shadow03" x="-35%" y="-35%" width="170%" height="170%">
      <feDropShadow dx="14" dy="20" stdDeviation="14" flood-color="#000" flood-opacity=".5"/>
    </filter>
  </defs>

  <rect width="2000" height="2000" fill="url(#bg03)" filter="url(#concrete03)"/>

  <g font-family="Arial Black, Montserrat, sans-serif" filter="url(#shadow03)">
    <text x="1030" y="830" font-size="145" fill="url(#metal03)" letter-spacing="6">NARVAEZ</text>
    <text x="350" y="1100" font-size="280" font-weight="900" fill="url(#orange03)">CO</text>
    <text x="1035" y="1100" font-size="280" font-weight="900" fill="url(#orange03)">CRETOS</text>

    <g transform="translate(780 660)">
      <polygon points="200,0 330,180 250,180 250,450 150,450 150,180 70,180" fill="url(#metal03)"/>
      <polygon points="200,205 340,395 255,395 255,700 145,700 145,395 60,395" fill="url(#orange03)"/>
      <polygon points="200,430 330,610 250,610 250,900 150,900 150,610 70,610" fill="url(#metal03)"/>
    </g>
  </g>
</svg>
